<svg height="512pt" viewBox="0 0 512 512" width="512pt" xmlns="http://www.w3.org/2000/svg" xmlns:xlink="http://www.w3.org/1999/xlink"><linearGradient id="a" gradientUnits="userSpaceOnUse" x1="74.9807" x2="437.0193" y1="74.9807" y2="437.0193"><stop offset="0" stop-color="#fbdf65"/><stop offset="1" stop-color="#faad57"/></linearGradient><linearGradient id="b"><stop offset="0" stop-color="#637b49"/><stop offset="1" stop-color="#203f49"/></linearGradient><linearGradient id="c" gradientUnits="userSpaceOnUse" x1="112" x2="392.3177" xlink:href="#b" y1="137.5799" y2="137.5799"/><linearGradient id="d" gradientUnits="userSpaceOnUse" x1="112" x2="392.3177" xlink:href="#b" y1="309.2778" y2="309.2778"/><linearGradient id="e" gradientUnits="userSpaceOnUse" x1="112" x2="392.3177" xlink:href="#b" y1="345.8111" y2="345.8111"/><linearGradient id="f" gradientUnits="userSpaceOnUse" x1="112" x2="392.3177" xlink:href="#b" y1="144.2689" y2="144.2689"/><linearGradient id="g" gradientUnits="userSpaceOnUse" x1="112" x2="392.3177" xlink:href="#b" y1="162.5356" y2="162.5356"/><linearGradient id="h" gradientUnits="userSpaceOnUse" x1="210.3333" x2="301.6667" y1="179.28" y2="179.28"><stop offset="0" stop-color="#c7d649"/><stop offset="1" stop-color="#849a49"/></linearGradient><linearGradient id="i" gradientUnits="userSpaceOnUse" x1="192.0667" x2="319.9333" y1="270.6133" y2="270.6133"><stop offset="0" stop-color="#a5b849"/><stop offset="1" stop-color="#637b49"/></linearGradient><linearGradient id="j" gradientUnits="userSpaceOnUse" x1="210.3333" x2="301.6667" xlink:href="#b" y1="270.6134" y2="270.6134"/><path d="m512 256c0 141.386719-114.613281 256-256 256s-256-114.613281-256-256 114.613281-256 256-256 256 114.613281 256 256zm0 0" fill="url(#a)"/><path d="m246.867188 325.414062h18.265624v27.398438h-18.265624zm0 0" fill="#fabe5c"/><path d="m228.601562 115.347656h18.265626v44.464844h-18.265626zm0 0" fill="url(#c)"/><path d="m265.132812 115.347656h18.265626v44.464844h-18.265626zm0 0" fill="url(#c)"/><path d="m393 375.34375h-18.265625v-113.863281h-63.933594v-18.265625h82.199219zm0 0" fill="url(#d)"/><path d="m356.46875 411.875h-18.269531v-113.863281h-27.398438v-18.265625h45.667969zm0 0" fill="url(#e)"/><path d="m338.199219 188.414062h-82.199219v-18.265624h63.933594v-70.023438h18.265625zm0 0" fill="url(#f)"/><path d="m137.265625 375.34375h-18.265625v-132.128906h82.199219v18.265625h-63.933594zm0 0" fill="url(#d)"/><path d="m173.800781 411.875h-18.269531v-132.128906h45.667969v18.265625h-27.398438zm0 0" fill="url(#e)"/><path d="m374.734375 100.125h-18.265625v106.554688h-100.46875v18.265624h118.734375zm0 0" fill="url(#g)"/><path d="m155.53125 206.679688v-106.554688h-18.265625v124.820312h118.734375v-18.265624zm0 0" fill="url(#g)"/><path d="m256 188.414062h-82.199219v-88.289062h18.265625v70.023438h63.933594zm0 0" fill="url(#f)"/><path d="m256 133.613281c-25.179688 0-45.667969 20.484375-45.667969 45.667969v45.664062h91.335938v-45.664062c0-25.183594-20.488281-45.667969-45.667969-45.667969zm0 0" fill="url(#h)"/><path d="m192.066406 206.679688v63.933593c0 35.253907 28.679688 63.933594 63.933594 63.933594v-127.867187zm0 0" fill="#849a49"/><path d="m256 206.679688v127.867187c35.253906 0 63.933594-28.679687 63.933594-63.933594v-63.933593zm0 0" fill="#637b49"/><path d="m256 206.679688h-63.933594v63.933593c0 35.253907 28.679688 63.933594 63.933594 63.933594s63.933594-28.679687 63.933594-63.933594v-63.933593zm0 0" fill="url(#i)"/><path d="m256 224.945312h-45.667969v45.667969c0 25.183594 20.488281 45.667969 45.667969 45.667969s45.667969-20.484375 45.667969-45.667969v-45.667969zm0 0" fill="url(#j)"/></svg>